solid OpenSCAD_Model
  facet normal 0 0 -1
    outer loop
      vertex 0 0 0
      vertex 200 100 0
      vertex 200 0 0
    endloop
  endfacet
  facet normal -0 0 -1
    outer loop
      vertex 200 100 0
      vertex 0 0 0
      vertex 0 100 0
    endloop
  endfacet
  facet normal 1 -0 0
    outer loop
      vertex 200 0 330
      vertex 200 100 0
      vertex 200 100 330
    endloop
  endfacet
  facet normal 1 0 0
    outer loop
      vertex 200 100 0
      vertex 200 0 330
      vertex 200 0 0
    endloop
  endfacet
  facet normal -1 0 0
    outer loop
      vertex 0 0 0
      vertex 0 100 330
      vertex 0 100 0
    endloop
  endfacet
  facet normal -1 -0 0
    outer loop
      vertex 0 100 330
      vertex 0 0 0
      vertex 0 0 330
    endloop
  endfacet
  facet normal 0 -1 0
    outer loop
      vertex 0 0 330
      vertex 30 0 30
      vertex 30 0 330
    endloop
  endfacet
  facet normal 0 -1 -0
    outer loop
      vertex 30 0 30
      vertex 0 0 0
      vertex 170 0 30
    endloop
  endfacet
  facet normal 0 -1 0
    outer loop
      vertex 0 0 0
      vertex 30 0 30
      vertex 0 0 330
    endloop
  endfacet
  facet normal 0 -1 0
    outer loop
      vertex 170 0 30
      vertex 200 0 330
      vertex 170 0 330
    endloop
  endfacet
  facet normal 0 -1 0
    outer loop
      vertex 170 0 30
      vertex 200 0 0
      vertex 200 0 330
    endloop
  endfacet
  facet normal 0 -1 0
    outer loop
      vertex 200 0 0
      vertex 170 0 30
      vertex 0 0 0
    endloop
  endfacet
  facet normal 0 1 0
    outer loop
      vertex 200 100 330
      vertex 170 100 30
      vertex 170 100 330
    endloop
  endfacet
  facet normal 0 1 0
    outer loop
      vertex 170 100 30
      vertex 200 100 0
      vertex 30 100 30
    endloop
  endfacet
  facet normal 0 1 -0
    outer loop
      vertex 200 100 0
      vertex 170 100 30
      vertex 200 100 330
    endloop
  endfacet
  facet normal 0 1 -0
    outer loop
      vertex 30 100 30
      vertex 0 100 330
      vertex 30 100 330
    endloop
  endfacet
  facet normal 0 1 0
    outer loop
      vertex 30 100 30
      vertex 0 100 0
      vertex 0 100 330
    endloop
  endfacet
  facet normal 0 1 0
    outer loop
      vertex 0 100 0
      vertex 30 100 30
      vertex 200 100 0
    endloop
  endfacet
  facet normal -0 0 1
    outer loop
      vertex 10 40 30
      vertex 30 30 30
      vertex 30 40 30
    endloop
  endfacet
  facet normal 0 0 1
    outer loop
      vertex 30 30 30
      vertex 10 40 30
      vertex 10 30 30
    endloop
  endfacet
  facet normal -0 0 1
    outer loop
      vertex 10 70 30
      vertex 30 60 30
      vertex 30 70 30
    endloop
  endfacet
  facet normal 0 0 1
    outer loop
      vertex 30 60 30
      vertex 10 70 30
      vertex 10 60 30
    endloop
  endfacet
  facet normal -0 0 1
    outer loop
      vertex 110 90 30
      vertex 170 70 30
      vertex 170 100 30
    endloop
  endfacet
  facet normal 0 0 1
    outer loop
      vertex 170 70 30
      vertex 110 90 30
      vertex 170 60 30
    endloop
  endfacet
  facet normal 0 0 1
    outer loop
      vertex 110 40 30
      vertex 170 60 30
      vertex 110 90 30
    endloop
  endfacet
  facet normal 0 0 1
    outer loop
      vertex 170 40 30
      vertex 110 40 30
      vertex 170 30 30
    endloop
  endfacet
  facet normal 0 0 1
    outer loop
      vertex 170 60 30
      vertex 110 40 30
      vertex 170 40 30
    endloop
  endfacet
  facet normal 0 0 1
    outer loop
      vertex 170 100 30
      vertex 90 90 30
      vertex 110 90 30
    endloop
  endfacet
  facet normal 0 0 1
    outer loop
      vertex 30 70 30
      vertex 90 90 30
      vertex 30 100 30
    endloop
  endfacet
  facet normal -0 0 1
    outer loop
      vertex 30 100 30
      vertex 90 90 30
      vertex 170 100 30
    endloop
  endfacet
  facet normal -0 0 1
    outer loop
      vertex 170 70 30
      vertex 190 60 30
      vertex 190 70 30
    endloop
  endfacet
  facet normal 0 0 1
    outer loop
      vertex 190 60 30
      vertex 170 70 30
      vertex 170 60 30
    endloop
  endfacet
  facet normal -0 0 1
    outer loop
      vertex 170 40 30
      vertex 190 30 30
      vertex 190 40 30
    endloop
  endfacet
  facet normal 0 0 1
    outer loop
      vertex 190 30 30
      vertex 170 40 30
      vertex 170 30 30
    endloop
  endfacet
  facet normal 0 0 1
    outer loop
      vertex 170 30 30
      vertex 110 40 30
      vertex 170 0 30
    endloop
  endfacet
  facet normal -0 0 1
    outer loop
      vertex 90 40 30
      vertex 170 0 30
      vertex 110 40 30
    endloop
  endfacet
  facet normal 0 0 1
    outer loop
      vertex 90 90 30
      vertex 30 70 30
      vertex 90 40 30
    endloop
  endfacet
  facet normal -0 0 1
    outer loop
      vertex 30 60 30
      vertex 90 40 30
      vertex 30 70 30
    endloop
  endfacet
  facet normal 0 0 1
    outer loop
      vertex 30 40 30
      vertex 90 40 30
      vertex 30 60 30
    endloop
  endfacet
  facet normal 0 0 1
    outer loop
      vertex 30 30 30
      vertex 90 40 30
      vertex 30 40 30
    endloop
  endfacet
  facet normal 0 0 1
    outer loop
      vertex 30 0 30
      vertex 90 40 30
      vertex 30 30 30
    endloop
  endfacet
  facet normal 0 0 1
    outer loop
      vertex 90 40 30
      vertex 30 0 30
      vertex 170 0 30
    endloop
  endfacet
  facet normal -1 0 0
    outer loop
      vertex 110 40 10
      vertex 110 90 30
      vertex 110 90 10
    endloop
  endfacet
  facet normal -1 -0 0
    outer loop
      vertex 110 90 30
      vertex 110 40 10
      vertex 110 40 30
    endloop
  endfacet
  facet normal -4.76837e-008 0 1
    outer loop
      vertex 90 90 10
      vertex 110 40 10
      vertex 110 90 10
    endloop
  endfacet
  facet normal -4.76837e-008 0 1
    outer loop
      vertex 110 40 10
      vertex 90 90 10
      vertex 90 40 10
    endloop
  endfacet
  facet normal 0 1 -0
    outer loop
      vertex 110 40 10
      vertex 90 40 30
      vertex 110 40 30
    endloop
  endfacet
  facet normal 0 1 0
    outer loop
      vertex 90 40 30
      vertex 110 40 10
      vertex 90 40 10
    endloop
  endfacet
  facet normal 1 -0 0
    outer loop
      vertex 90 40 30
      vertex 90 90 10
      vertex 90 90 30
    endloop
  endfacet
  facet normal 1 0 0
    outer loop
      vertex 90 90 10
      vertex 90 40 30
      vertex 90 40 10
    endloop
  endfacet
  facet normal 0 -1 0
    outer loop
      vertex 90 90 30
      vertex 110 90 10
      vertex 110 90 30
    endloop
  endfacet
  facet normal -0 -1 0
    outer loop
      vertex 110 90 10
      vertex 90 90 30
      vertex 90 90 10
    endloop
  endfacet
  facet normal -0 0 1
    outer loop
      vertex 170 60 330
      vertex 190 40 330
      vertex 190 60 330
    endloop
  endfacet
  facet normal 0 0 1
    outer loop
      vertex 190 40 330
      vertex 170 60 330
      vertex 170 40 330
    endloop
  endfacet
  facet normal 0 0 1
    outer loop
      vertex 190 60 330
      vertex 200 100 330
      vertex 190 70 330
    endloop
  endfacet
  facet normal -0 0 1
    outer loop
      vertex 170 100 330
      vertex 190 70 330
      vertex 200 100 330
    endloop
  endfacet
  facet normal 0 0 1
    outer loop
      vertex 190 70 330
      vertex 170 100 330
      vertex 170 70 330
    endloop
  endfacet
  facet normal 0 0 1
    outer loop
      vertex 200 100 330
      vertex 190 60 330
      vertex 200 0 330
    endloop
  endfacet
  facet normal -0 0 1
    outer loop
      vertex 190 40 330
      vertex 200 0 330
      vertex 190 60 330
    endloop
  endfacet
  facet normal -0 0 1
    outer loop
      vertex 190 30 330
      vertex 200 0 330
      vertex 190 40 330
    endloop
  endfacet
  facet normal 0 0 1
    outer loop
      vertex 170 0 330
      vertex 190 30 330
      vertex 170 30 330
    endloop
  endfacet
  facet normal 0 0 1
    outer loop
      vertex 190 30 330
      vertex 170 0 330
      vertex 200 0 330
    endloop
  endfacet
  facet normal -1 0 0
    outer loop
      vertex 170 70 30
      vertex 170 100 330
      vertex 170 100 30
    endloop
  endfacet
  facet normal -1 -0 0
    outer loop
      vertex 170 100 330
      vertex 170 70 30
      vertex 170 70 330
    endloop
  endfacet
  facet normal 0 -1 0
    outer loop
      vertex 170 70 30
      vertex 190 70 330
      vertex 170 70 330
    endloop
  endfacet
  facet normal 0 -1 -0
    outer loop
      vertex 190 70 330
      vertex 170 70 30
      vertex 190 70 30
    endloop
  endfacet
  facet normal -1 0 0
    outer loop
      vertex 190 60 30
      vertex 190 70 330
      vertex 190 70 30
    endloop
  endfacet
  facet normal -1 -0 0
    outer loop
      vertex 190 70 330
      vertex 190 60 30
      vertex 190 60 330
    endloop
  endfacet
  facet normal 0 1 -0
    outer loop
      vertex 190 60 30
      vertex 170 60 330
      vertex 190 60 330
    endloop
  endfacet
  facet normal 0 1 0
    outer loop
      vertex 170 60 330
      vertex 190 60 30
      vertex 170 60 30
    endloop
  endfacet
  facet normal -1 0 0
    outer loop
      vertex 170 40 30
      vertex 170 60 330
      vertex 170 60 30
    endloop
  endfacet
  facet normal -1 -0 0
    outer loop
      vertex 170 60 330
      vertex 170 40 30
      vertex 170 40 330
    endloop
  endfacet
  facet normal 0 -1 0
    outer loop
      vertex 170 40 30
      vertex 190 40 330
      vertex 170 40 330
    endloop
  endfacet
  facet normal 0 -1 -0
    outer loop
      vertex 190 40 330
      vertex 170 40 30
      vertex 190 40 30
    endloop
  endfacet
  facet normal -1 0 0
    outer loop
      vertex 190 30 30
      vertex 190 40 330
      vertex 190 40 30
    endloop
  endfacet
  facet normal -1 -0 0
    outer loop
      vertex 190 40 330
      vertex 190 30 30
      vertex 190 30 330
    endloop
  endfacet
  facet normal 0 1 -0
    outer loop
      vertex 190 30 30
      vertex 170 30 330
      vertex 190 30 330
    endloop
  endfacet
  facet normal 0 1 0
    outer loop
      vertex 170 30 330
      vertex 190 30 30
      vertex 170 30 30
    endloop
  endfacet
  facet normal -1 0 0
    outer loop
      vertex 170 0 30
      vertex 170 30 330
      vertex 170 30 30
    endloop
  endfacet
  facet normal -1 -0 0
    outer loop
      vertex 170 30 330
      vertex 170 0 30
      vertex 170 0 330
    endloop
  endfacet
  facet normal 0 0 1
    outer loop
      vertex 30 100 330
      vertex 10 70 330
      vertex 30 70 330
    endloop
  endfacet
  facet normal 0 0 1
    outer loop
      vertex 0 100 330
      vertex 10 60 330
      vertex 10 70 330
    endloop
  endfacet
  facet normal 0 0 1
    outer loop
      vertex 10 60 330
      vertex 0 100 330
      vertex 10 40 330
    endloop
  endfacet
  facet normal 0 0 1
    outer loop
      vertex 0 0 330
      vertex 10 40 330
      vertex 0 100 330
    endloop
  endfacet
  facet normal -0 0 1
    outer loop
      vertex 0 100 330
      vertex 10 70 330
      vertex 30 100 330
    endloop
  endfacet
  facet normal -0 0 1
    outer loop
      vertex 10 60 330
      vertex 30 40 330
      vertex 30 60 330
    endloop
  endfacet
  facet normal 0 0 1
    outer loop
      vertex 30 40 330
      vertex 10 60 330
      vertex 10 40 330
    endloop
  endfacet
  facet normal -0 0 1
    outer loop
      vertex 10 30 330
      vertex 30 0 330
      vertex 30 30 330
    endloop
  endfacet
  facet normal 0 0 1
    outer loop
      vertex 10 30 330
      vertex 0 0 330
      vertex 30 0 330
    endloop
  endfacet
  facet normal 0 0 1
    outer loop
      vertex 10 40 330
      vertex 0 0 330
      vertex 10 30 330
    endloop
  endfacet
  facet normal 1 -0 0
    outer loop
      vertex 30 0 330
      vertex 30 30 30
      vertex 30 30 330
    endloop
  endfacet
  facet normal 1 0 0
    outer loop
      vertex 30 30 30
      vertex 30 0 330
      vertex 30 0 30
    endloop
  endfacet
  facet normal 0 1 -0
    outer loop
      vertex 30 30 30
      vertex 10 30 330
      vertex 30 30 330
    endloop
  endfacet
  facet normal 0 1 0
    outer loop
      vertex 10 30 330
      vertex 30 30 30
      vertex 10 30 30
    endloop
  endfacet
  facet normal 1 -0 0
    outer loop
      vertex 10 30 330
      vertex 10 40 30
      vertex 10 40 330
    endloop
  endfacet
  facet normal 1 0 0
    outer loop
      vertex 10 40 30
      vertex 10 30 330
      vertex 10 30 30
    endloop
  endfacet
  facet normal 0 -1 0
    outer loop
      vertex 10 40 30
      vertex 30 40 330
      vertex 10 40 330
    endloop
  endfacet
  facet normal 0 -1 -0
    outer loop
      vertex 30 40 330
      vertex 10 40 30
      vertex 30 40 30
    endloop
  endfacet
  facet normal 1 -0 0
    outer loop
      vertex 30 40 330
      vertex 30 60 30
      vertex 30 60 330
    endloop
  endfacet
  facet normal 1 0 0
    outer loop
      vertex 30 60 30
      vertex 30 40 330
      vertex 30 40 30
    endloop
  endfacet
  facet normal 0 1 -0
    outer loop
      vertex 30 60 30
      vertex 10 60 330
      vertex 30 60 330
    endloop
  endfacet
  facet normal 0 1 0
    outer loop
      vertex 10 60 330
      vertex 30 60 30
      vertex 10 60 30
    endloop
  endfacet
  facet normal 1 -0 0
    outer loop
      vertex 10 60 330
      vertex 10 70 30
      vertex 10 70 330
    endloop
  endfacet
  facet normal 1 0 0
    outer loop
      vertex 10 70 30
      vertex 10 60 330
      vertex 10 60 30
    endloop
  endfacet
  facet normal 0 -1 0
    outer loop
      vertex 10 70 30
      vertex 30 70 330
      vertex 10 70 330
    endloop
  endfacet
  facet normal 0 -1 -0
    outer loop
      vertex 30 70 330
      vertex 10 70 30
      vertex 30 70 30
    endloop
  endfacet
  facet normal 1 -0 0
    outer loop
      vertex 30 70 330
      vertex 30 100 30
      vertex 30 100 330
    endloop
  endfacet
  facet normal 1 0 0
    outer loop
      vertex 30 100 30
      vertex 30 70 330
      vertex 30 70 30
    endloop
  endfacet
endsolid OpenSCAD_Model
